HIERARCHY
ROOT Pelvis
{
	OFFSET 0.000000 0.000000 0.000000
	CHANNELS 6 Xposition Yposition Zposition Xrotation Yrotation Zrotation
	JOINT LeftUpLeg_virtual
	{
		OFFSET 0.000000 0.000000 0.000000
		CHANNELS 3 Xrotation Yrotation Zrotation
		JOINT LeftUpLeg
		{
			OFFSET 8.479700 -4.795502 -0.379100
			CHANNELS 3 Xrotation Yrotation Zrotation
			JOINT LeftLeg
			{
				OFFSET 0.024144 -32.555107 0.112900
				CHANNELS 3 Xrotation Yrotation Zrotation
				JOINT LeftFoot
				{
					OFFSET -0.024144 -32.638630 -3.012600
					CHANNELS 3 Xrotation Yrotation Zrotation
					JOINT LeftToeBase
					{
						OFFSET 0.970200 -13.225400 11.864200
						CHANNELS 3 Xrotation Yrotation Zrotation
						End Site
						{
							OFFSET 0 0 0
						}
					}
				}
			}
		}
	}
	JOINT RightUpLeg_virtual
	{
		OFFSET 0.000000 0.000000 0.000000
		CHANNELS 3 Xrotation Yrotation Zrotation
		JOINT RightUpLeg
		{
			OFFSET -8.479700 -4.795502 -0.379100
			CHANNELS 3 Xrotation Yrotation Zrotation
			JOINT RightLeg
			{
				OFFSET -0.023144 -32.555092 0.112900
				CHANNELS 3 Xrotation Yrotation Zrotation
				JOINT RightFoot
				{
					OFFSET 0.023144 -32.638641 -3.012700
					CHANNELS 3 Xrotation Yrotation Zrotation
					JOINT RightToeBase
					{
						OFFSET -0.970200 -13.225400 11.864200
						CHANNELS 3 Xrotation Yrotation Zrotation
						End Site
						{
							OFFSET 0 0 0
						}
					}
				}
			}
		}
	}
	JOINT Hips_virtual
	{
		OFFSET 0.000000 0.000000 0.000000
		CHANNELS 3 Xrotation Yrotation Zrotation
		JOINT Hips
		{
			OFFSET -0.000000 -0.000000 -0.000000
			CHANNELS 3 Xrotation Yrotation Zrotation
			JOINT Spine
			{
				OFFSET 0.000000 7.722000 1.166200
				CHANNELS 3 Xrotation Yrotation Zrotation
				JOINT Spine1
				{
					OFFSET 0.000000 12.024101 0.248800
					CHANNELS 3 Xrotation Yrotation Zrotation
					JOINT Spine2
					{
						OFFSET 0.000000 11.502998 -0.491200
						CHANNELS 3 Xrotation Yrotation Zrotation
						JOINT Neck_virtual
						{
							OFFSET 0.000000 0.000000 0.000000
							CHANNELS 3 Xrotation Yrotation Zrotation
							JOINT Neck
							{
								OFFSET 0.000000 18.430702 -3.123100
								CHANNELS 3 Xrotation Yrotation Zrotation
								JOINT Head
								{
									OFFSET 0.000000 9.051102 1.034000
									CHANNELS 3 Xrotation Yrotation Zrotation
									End Site
									{
										OFFSET 0 0 0
									}
								}
							}
						}
						JOINT LeftShoulder_virtual
						{
							OFFSET 0.000000 0.000000 0.000000
							CHANNELS 3 Xrotation Yrotation Zrotation
							JOINT LeftShoulder
							{
								OFFSET 6.197800 13.665199 -4.064700
								CHANNELS 3 Xrotation Yrotation Zrotation
								JOINT LeftArm
								{
									OFFSET 7.778100 -0.187103 -1.709300
									CHANNELS 3 Xrotation Yrotation Zrotation
									JOINT LeftForeArm
									{
										OFFSET 22.049376 0.000000 0.000000
										CHANNELS 3 Xrotation Yrotation Zrotation
										JOINT LeftHand
										{
											OFFSET 23.009392 0.000000 0.000000
											CHANNELS 3 Xrotation Yrotation Zrotation
											End Site
											{
												OFFSET 0 0 0
											}
										}
									}
								}
							}
						}
						JOINT RightShoulder_virtual
						{
							OFFSET 0.000000 0.000000 0.000000
							CHANNELS 3 Xrotation Yrotation Zrotation
							JOINT RightShoulder
							{
								OFFSET -6.197800 13.665199 -4.064700
								CHANNELS 3 Xrotation Yrotation Zrotation
								JOINT RightArm
								{
									OFFSET -7.778100 -0.187103 -1.709300
									CHANNELS 3 Xrotation Yrotation Zrotation
									JOINT RightForeArm
									{
										OFFSET -22.049376 0.000000 0.000000
										CHANNELS 3 Xrotation Yrotation Zrotation
										JOINT RightHand
										{
											OFFSET -23.009392 0.000000 0.000000
											CHANNELS 3 Xrotation Yrotation Zrotation
											End Site
											{
												OFFSET 0 0 0
											}
										}
									}
								}
							}
						}
					}
				}
			}
		}
	}
}
MOTION
Frames: 9
Frame Time: 0.03333333
-0.148248 101.534416 -1.070215 0.000000 0.000000 0.000000 4.510391 -38.179344 4.858707 -78.225788 -17.992158 30.262068 63.984939 0.771876 7.489863 8.047987 -0.027140 0.471362 0.000000 0.000000 0.000000 4.510391 -38.179344 4.858707 -117.090479 -42.232033 -2.087859 123.111824 19.677539 -13.514177 12.729179 -0.701167 25.341972 0.000000 0.000000 0.000000 4.510391 -38.179344 4.858707 0.000000 -0.000004 0.000000 30.121749 -4.319838 -10.166124 12.785638 1.087589 -3.033124 0.000000 0.000000 0.000000 12.733211 1.050404 -3.241309 -8.164151 20.999278 -13.038087 0.000000 0.000000 0.000000 12.733211 1.050404 -3.241309 9.829630 -9.813816 -1.458551 -62.537738 12.081216 3.106151 46.615556 -25.819855 31.530090 0.000000 0.000000 0.000000 12.733211 1.050404 -3.241309 14.990493 20.897818 -4.160221 -28.001563 -11.258123 -3.541426 -45.194549 43.243994 34.197692 0.000000 0.000000 0.000000 
-0.171504 101.507942 -1.026335 0.000000 0.000000 0.000000 4.442822 -37.910466 4.767170 -78.428501 -17.832430 29.973428 64.030114 2.244299 8.261578 8.157222 -0.724291 1.775763 0.000000 0.000000 0.000000 4.442822 -37.910466 4.767170 -117.382620 -42.121736 -2.049877 123.174539 19.632376 -13.513026 13.719546 -0.677626 25.985275 0.000000 0.000000 0.000000 4.442822 -37.910466 4.767170 0.000000 -0.000002 0.000000 30.121496 -4.384660 -10.166726 12.788137 1.087594 -3.033139 0.000000 0.000000 0.000000 12.735772 1.050412 -3.241317 -8.920872 20.968729 -13.048919 0.000000 0.000000 0.000000 12.735772 1.050412 -3.241317 9.984063 -9.728886 -0.757585 -62.955800 11.135330 3.775608 46.589236 -25.768456 31.469598 0.000000 0.000000 0.000000 12.735772 1.050412 -3.241317 15.302919 20.568551 -4.925036 -28.808310 -11.687213 -3.682308 -45.727877 43.802208 34.969223 0.000000 0.000000 0.000000 
-0.166121 101.502571 -1.018103 0.000000 0.000000 0.000000 4.381595 -37.691149 4.648659 -78.459025 -17.884826 29.961800 64.085684 2.162505 8.213307 8.253885 -0.789995 1.957097 0.000000 0.000000 0.000000 4.381595 -37.691149 4.648659 -117.598495 -42.100275 -2.060826 123.323519 19.509845 -13.493120 13.884415 -0.671884 26.138323 0.000000 0.000000 0.000000 4.381595 -37.691149 4.648659 0.000000 -0.000003 0.000000 30.121742 -4.396429 -10.160593 12.798060 1.087545 -3.033108 0.000000 0.000000 0.000000 12.745770 1.050455 -3.241329 -8.938883 20.977123 -13.011270 0.000000 0.000000 0.000000 12.745770 1.050455 -3.241329 10.133428 -9.721067 -0.028975 -63.361377 10.080277 4.356417 46.550014 -25.690298 31.376721 0.000000 0.000000 0.000000 12.745770 1.050455 -3.241329 15.618582 20.231676 -5.707898 -29.640139 -12.140668 -3.854861 -46.313795 44.391804 35.807823 0.000000 0.000000 0.000000 
-0.158184 101.495407 -1.012680 0.000000 0.000000 0.000000 4.321459 -37.473812 4.529195 -78.508045 -17.957973 29.959440 64.145394 2.012162 8.128985 8.451365 -0.795442 2.099436 0.000000 0.000000 0.000000 4.321459 -37.473812 4.529195 -117.828795 -42.082465 -2.075391 123.460696 19.356032 -13.472542 14.068871 -0.664684 26.309224 0.000000 0.000000 0.000000 4.321459 -37.473812 4.529195 0.000000 0.000001 0.000000 30.127087 -4.406484 -10.147631 12.814272 1.087509 -3.033105 0.000000 0.000000 0.000000 12.762086 1.050441 -3.241334 -8.900561 20.965570 -12.984456 0.000000 0.000000 0.000000 12.762086 1.050441 -3.241334 10.281100 -9.782281 0.722439 -63.758621 8.941661 4.845704 46.500263 -25.586442 31.254345 0.000000 0.000000 0.000000 12.762086 1.050441 -3.241334 15.932605 19.880780 -6.500309 -30.491047 -12.602410 -4.047638 -46.939655 44.997115 36.694904 0.000000 0.000000 0.000000 
-0.149265 101.488609 -1.012268 0.000000 0.000000 0.000000 4.261849 -37.254638 4.411112 -78.573663 -18.031718 29.953173 64.230546 1.860107 8.042195 8.596512 -0.791964 2.277249 0.000000 0.000000 0.000000 4.261849 -37.254638 4.411112 -118.053891 -42.075103 -2.090919 123.592956 19.211900 -13.453208 14.273492 -0.652528 26.444370 0.000000 0.000000 0.000000 4.261849 -37.254638 4.411112 0.000000 -0.000001 0.000000 30.134747 -4.420294 -10.132226 12.836353 1.087547 -3.033105 0.000000 0.000000 0.000000 12.784355 1.050453 -3.241325 -8.866105 20.938426 -12.983737 0.000000 0.000000 0.000000 12.784355 1.050453 -3.241325 10.430023 -9.904277 1.491893 -64.152593 7.747710 5.238488 46.442448 -25.463698 31.110617 0.000000 0.000000 0.000000 12.784355 1.050453 -3.241325 16.239448 19.506938 -7.293201 -31.353355 -13.054810 -4.253611 -47.590887 45.600792 37.608213 0.000000 0.000000 0.000000 
-0.138411 101.480377 -1.013241 0.000000 0.000000 0.000000 4.202805 -37.035113 4.291818 -78.650769 -18.122468 29.957852 64.323976 1.639514 7.919833 8.801021 -0.732532 2.400576 0.000000 0.000000 0.000000 4.202805 -37.035113 4.291818 -118.282429 -42.060865 -2.107156 123.718194 19.056918 -13.433912 14.465473 -0.635919 26.621525 0.000000 0.000000 0.000000 4.202805 -37.035113 4.291818 0.000000 -0.000001 0.000000 30.144616 -4.435053 -10.114078 12.863853 1.087552 -3.033125 0.000000 0.000000 0.000000 12.812093 1.050434 -3.241303 -8.809675 20.910542 -12.999778 0.000000 0.000000 0.000000 12.812093 1.050434 -3.241303 10.582875 -10.078776 2.274426 -64.548716 6.527447 5.530492 46.378511 -25.327161 30.952068 0.000000 0.000000 0.000000 12.812093 1.050434 -3.241303 16.559047 19.217973 -8.109870 -32.219143 -13.481954 -4.464592 -48.252479 46.188007 38.526187 0.000000 0.000000 0.000000 
-0.126282 101.472939 -1.017963 0.000000 0.000000 0.000000 4.143964 -36.813528 4.172220 -78.739882 -18.212653 29.960994 64.432173 1.432400 7.804053 8.962898 -0.678526 2.537855 0.000000 0.000000 0.000000 4.143964 -36.813528 4.172220 -118.497826 -42.055565 -2.124661 123.841698 18.914631 -13.415475 14.649525 -0.618332 26.761537 0.000000 0.000000 0.000000 4.143964 -36.813528 4.172220 0.000000 -0.000002 0.000000 30.156890 -4.451637 -10.094845 12.896407 1.087571 -3.033108 0.000000 0.000000 0.000000 12.844860 1.047236 -3.240654 -8.768871 20.881830 -13.000375 0.000000 0.000000 0.000000 12.844860 1.047236 -3.240654 10.741668 -10.297289 3.065308 -64.952319 5.309768 5.718528 46.310008 -25.181642 30.784117 0.000000 0.000000 0.000000 12.844860 1.047236 -3.240654 16.860662 18.882275 -8.907524 -33.079385 -13.866480 -4.670740 -48.903950 46.741457 39.420549 0.000000 0.000000 0.000000 
-0.112884 101.463730 -1.021986 0.000000 0.000000 0.000000 4.085277 -36.590245 4.050131 -78.842608 -18.315200 29.962988 64.534469 1.278526 7.717101 9.193196 -0.696859 2.683602 0.000000 0.000000 0.000000 4.085277 -36.590245 4.050131 -118.710081 -42.042389 -2.141382 123.950899 18.755232 -13.397610 14.837111 -0.600659 26.937148 0.000000 0.000000 0.000000 4.085277 -36.590245 4.050131 0.000000 -0.000002 0.000000 30.171637 -4.468259 -10.074141 12.933489 1.081311 -3.031822 0.000000 0.000000 0.000000 12.882116 1.039923 -3.239146 -8.683206 20.853244 -13.008446 0.000000 0.000000 0.000000 12.882116 1.039923 -3.239146 10.908295 -10.551305 3.859648 -65.367950 4.124225 5.799965 46.239510 -25.032870 30.612846 0.000000 0.000000 0.000000 12.882116 1.039923 -3.239146 17.174126 18.638483 -9.718590 -33.924921 -14.193813 -4.861307 -49.526292 47.247888 40.266035 0.000000 0.000000 0.000000 
-0.098681 101.455559 -1.028057 0.000000 0.000000 0.000000 4.026455 -36.363668 3.926488 -78.954344 -18.417841 29.960393 64.645828 1.239199 7.691743 9.368452 -0.835960 2.835181 0.000000 0.000000 0.000000 4.026455 -36.363668 3.926488 -118.907556 -42.048690 -2.160035 124.053352 18.593491 -13.380579 15.046181 -0.587715 27.041854 0.000000 0.000000 0.000000 4.026455 -36.363668 3.926488 0.000000 0.000002 0.000000 30.189498 -4.486592 -10.053590 12.974689 1.072761 -3.030062 0.000000 0.000000 0.000000 12.923661 1.030320 -3.237163 -8.657804 20.860322 -12.990607 0.000000 0.000000 0.000000 12.923661 1.030320 -3.237163 11.083771 -10.832093 4.652777 -65.798873 3.000790 5.773095 46.169637 -24.886037 30.443868 0.000000 0.000000 0.000000 12.923661 1.030320 -3.237163 17.482836 18.421206 -10.518587 -34.745797 -14.448044 -5.024516 -50.097027 47.691932 41.032310 0.000000 0.000000 0.000000 
